HIERARCHY
ROOT hip
{
  OFFSET 0 0 0
  CHANNELS 6 Xposition Yposition Zposition Zrotation Yrotation Xrotation
  JOINT abdomen
  {
    OFFSET 0 20.6881 -0.73152
    CHANNELS 3 Zrotation Xrotation Yrotation
    JOINT chest
    {
      OFFSET 0 11.7043 -0.48768
      CHANNELS 3 Zrotation Xrotation Yrotation
      JOINT neck
      {
        OFFSET 0 22.1894 -2.19456
        CHANNELS 3 Zrotation Xrotation Yrotation
        JOINT head
        {
          OFFSET -0.24384 7.07133 1.2192
          CHANNELS 3 Zrotation Xrotation Yrotation
          JOINT leftEye
          {
            OFFSET 4.14528 8.04674 8.04672
            CHANNELS 3 Zrotation Xrotation Yrotation
            End Site
            {
              OFFSET 1 0 0
            }
          }
          JOINT rightEye
          {
            OFFSET -3.6576 8.04674 8.04672
            CHANNELS 3 Zrotation Xrotation Yrotation
            End Site
            {
              OFFSET 1 0 0
            }
          }
        }
      }
      JOINT rCollar
      {
        OFFSET -2.68224 19.2634 -4.8768
        CHANNELS 3 Zrotation Xrotation Yrotation
        JOINT rShldr
        {
          OFFSET -8.77824 -1.95073 1.46304
          CHANNELS 3 Zrotation Xrotation Yrotation
          JOINT rForeArm
          {
            OFFSET -28.1742 -1.7115 0.48768
            CHANNELS 3 Zrotation Xrotation Yrotation
            JOINT rHand
            {
              OFFSET -22.5879 0.773209 7.07136
              CHANNELS 3 Zrotation Xrotation Yrotation
              JOINT rThumb1
              {
                OFFSET -1.2192 -0.487915 3.41376
                CHANNELS 3 Zrotation Xrotation Yrotation
                JOINT rThumb2
                {
                  OFFSET -3.37035 -0.52449 3.41376
                  CHANNELS 3 Zrotation Xrotation Yrotation
                  End Site
                  {
                    OFFSET -1.78271 -1.18214 1.43049
                  }
                }
              }
              JOINT rIndex1
              {
                OFFSET -7.75947 0.938293 5.60832
                CHANNELS 3 Zrotation Xrotation Yrotation
                JOINT rIndex2
                {
                  OFFSET -2.54057 -0.884171 1.56538
                  CHANNELS 3 Zrotation Xrotation Yrotation
                  End Site
                  {
                    OFFSET -1.62519 -0.234802 1.16502
                  }
                }
              }
              JOINT rMid1
              {
                OFFSET -8.24714 1.18213 3.41376
                CHANNELS 3 Zrotation Xrotation Yrotation
                JOINT rMid2
                {
                  OFFSET -3.10165 -0.590103 1.0647
                  CHANNELS 3 Zrotation Xrotation Yrotation
                  End Site
                  {
                    OFFSET -2.48547 -0.328903 0.83742
                  }
                }
              }
              JOINT rRing1
              {
                OFFSET -8.82822 0.546677 1.51678
                CHANNELS 3 Zrotation Xrotation Yrotation
                JOINT rRing2
                {
                  OFFSET -2.60934 -0.819778 -0.0198488
                  CHANNELS 3 Zrotation Xrotation Yrotation
                  End Site
                  {
                    OFFSET -2.33842 -0.294052 0.168128
                  }
                }
              }
              JOINT rPinky1
              {
                OFFSET -8.27202 -0.0477905 -0.4584
                CHANNELS 3 Zrotation Xrotation Yrotation
                JOINT rPinky2
                {
                  OFFSET -1.82734 -0.647385 -0.700984
                  CHANNELS 3 Zrotation Xrotation Yrotation
                  End Site
                  {
                    OFFSET -1.69225 -0.51767 -0.607171
                  }
                }
              }
            }
          }
        }
      }
      JOINT lCollar
      {
        OFFSET 2.68224 19.2634 -4.8768
        CHANNELS 3 Zrotation Xrotation Yrotation
        JOINT lShldr
        {
          OFFSET 8.77824 -1.95073 1.46304
          CHANNELS 3 Zrotation Xrotation Yrotation
          JOINT lForeArm
          {
            OFFSET 28.1742 -1.7115 0.48768
            CHANNELS 3 Zrotation Xrotation Yrotation
            JOINT lHand
            {
              OFFSET 22.5879 0.773209 7.07136
              CHANNELS 3 Zrotation Xrotation Yrotation
              JOINT lThumb1
              {
                OFFSET 1.2192 -0.487915 3.41376
                CHANNELS 3 Zrotation Xrotation Yrotation
                JOINT lThumb2
                {
                  OFFSET 3.37035 -0.52449 3.41376
                  CHANNELS 3 Zrotation Xrotation Yrotation
                  End Site
                  {
                    OFFSET 1.78271 -1.18214 1.43049
                  }
                }
              }
              JOINT lIndex1
              {
                OFFSET 7.75947 0.938293 5.60832
                CHANNELS 3 Zrotation Xrotation Yrotation
                JOINT lIndex2
                {
                  OFFSET 2.54057 -0.884171 1.56538
                  CHANNELS 3 Zrotation Xrotation Yrotation
                  End Site
                  {
                    OFFSET 1.62519 -0.234802 1.16502
                  }
                }
              }
              JOINT lMid1
              {
                OFFSET 8.24714 1.18213 3.41376
                CHANNELS 3 Zrotation Xrotation Yrotation
                JOINT lMid2
                {
                  OFFSET 3.10165 -0.590103 1.0647
                  CHANNELS 3 Zrotation Xrotation Yrotation
                  End Site
                  {
                    OFFSET 2.48547 -0.328903 0.83742
                  }
                }
              }
              JOINT lRing1
              {
                OFFSET 8.82822 0.546677 1.51678
                CHANNELS 3 Zrotation Xrotation Yrotation
                JOINT lRing2
                {
                  OFFSET 2.60934 -0.819778 -0.0198488
                  CHANNELS 3 Zrotation Xrotation Yrotation
                  End Site
                  {
                    OFFSET 2.33842 -0.294052 0.168128
                  }
                }
              }
              JOINT lPinky1
              {
                OFFSET 8.27202 -0.0477905 -0.4584
                CHANNELS 3 Zrotation Xrotation Yrotation
                JOINT lPinky2
                {
                  OFFSET 1.82734 -0.647385 -0.700984
                  CHANNELS 3 Zrotation Xrotation Yrotation
                  End Site
                  {
                    OFFSET 1.69225 -0.51767 -0.607171
                  }
                }
              }
            }
          }
        }
      }
    }
  }
  JOINT rButtock
  {
    OFFSET -8.77824 4.35084 1.2192
    CHANNELS 3 Zrotation Xrotation Yrotation
    JOINT rThigh
    {
      OFFSET 0 -1.70687 -2.19456
      CHANNELS 3 Zrotation Xrotation Yrotation
      JOINT rShin
      {
        OFFSET 0 -36.8199 0.73152
        CHANNELS 3 Zrotation Xrotation Yrotation
        JOINT rFoot
        {
          OFFSET 0.73152 -45.1104 -5.12064
          CHANNELS 3 Zrotation Xrotation Yrotation
          End Site
          {
            OFFSET -1.1221 -3.69964 12.103
          }
        }
      }
    }
  }
  JOINT lButtock
  {
    OFFSET 8.77824 4.35084 1.2192
    CHANNELS 3 Zrotation Xrotation Yrotation
    JOINT lThigh
    {
      OFFSET 0 -1.70687 -2.19456
      CHANNELS 3 Zrotation Xrotation Yrotation
      JOINT lShin
      {
        OFFSET 0 -36.8199 0.73152
        CHANNELS 3 Zrotation Xrotation Yrotation
        JOINT lFoot
        {
          OFFSET -0.73152 -45.1104 -5.12064
          CHANNELS 3 Zrotation Xrotation Yrotation
          End Site
          {
            OFFSET 1.1221 -3.69964 12.103
          }
        }
      }
    }
  }
}
MOTION
Frames:	5
Frame Time:	0.03333
-12.915900073130615 63.24629783630371 -66.13699982408434 -12.987996101379395 -45.890499114990234 10.413013458251953 2.8787786960601807 13.849197387695312 13.530200958251953 -1.2444020509719849 -12.686394691467285 3.703624963760376 -0.5033425688743591 12.594886779785156 8.134021759033203 6.090843677520752 -23.50930404663086 17.40290069580078 -0.0 0.0 -0.0 -0.0 0.0 -0.0 -0.0 0.0 -0.0 64.8031997680664 78.82889556884766 0.9944829344749451 -26.825895309448242 -44.46589660644531 92.37569427490234 -41.29347229003906 -79.4330825805664 -48.81645202636719 -0.0 0.0 -0.0 -0.0 0.0 -0.0 -0.0 0.0 -0.0 7.730876445770264 5.474894046783447 0.41732466220855713 -0.0 0.0 -0.0 2.9054994583129883 0.9650753736495972 0.10300876200199127 -0.0 0.0 -0.0 10.278595924377441 0.7317469120025635 0.026285571977496147 -0.0 0.0 -0.0 2.221662998199463 -0.7335850596427917 -0.20831838250160217 -0.0 0.0 -0.0 -65.80858612060547 12.099202156066895 -41.26158905029297 28.42800521850586 -36.21030044555664 -77.36209106445312 0.4690304100513458 19.09290313720703 -2.7883880138397217 -0.0 0.0 -0.0 -0.0 0.0 -0.0 -0.0 0.0 -0.0 -7.730876445770264 5.474894046783447 -0.41732466220855713 -0.0 0.0 -0.0 -2.9054994583129883 0.9650753736495972 -0.10300876200199127 -0.0 0.0 -0.0 -10.278595924377441 0.7317469120025635 -0.026285571977496147 -0.0 0.0 -0.0 -2.221662998199463 -0.7335850596427917 0.20831838250160217 -0.0 0.0 -0.0 -21.148603439331055 -27.4060001373291 -34.37510299682617 -4.311171531677246 79.51116943359375 5.533071517944336 -9.30967903137207 -18.925996780395508 -17.57960319519043 -0.0 0.0 -0.0 72.79529571533203 -49.60269546508789 67.5177993774414 3.7286107540130615 76.27287292480469 -3.5333476066589355 -0.16845554113388062 10.264823913574219 15.683183670043945
-12.948800073354505 63.01249861717224 -66.23299982165918 -13.062005043029785 -46.02119445800781 10.516998291015625 2.8607380390167236 13.861702919006348 13.652090072631836 -1.2072875499725342 -12.757205963134766 3.740851640701294 -0.5000298619270325 12.656164169311523 8.147492408752441 6.107946395874023 -23.40489959716797 17.420190811157227 -0.0 0.0 -0.0 -0.0 0.0 -0.0 -0.0 0.0 -0.0 64.68551635742188 78.8871078491211 1.107274055480957 -26.81999397277832 -44.48069763183594 92.4053955078125 -41.51998519897461 -79.45718383789062 -49.03767013549805 -0.0 0.0 -0.0 -0.0 0.0 -0.0 -0.0 0.0 -0.0 7.730876445770264 5.474894046783447 0.41732466220855713 -0.0 0.0 -0.0 2.9054994583129883 0.9650753736495972 0.10300876200199127 -0.0 0.0 -0.0 10.278595924377441 0.7317469120025635 0.026285571977496147 -0.0 0.0 -0.0 2.221662998199463 -0.7335850596427917 -0.20831838250160217 -0.0 0.0 -0.0 -65.83490753173828 12.103705406188965 -41.31560134887695 28.428306579589844 -36.19350051879883 -77.33390045166016 0.45757633447647095 18.869102478027344 -2.7531726360321045 -0.0 0.0 -0.0 -0.0 0.0 -0.0 -0.0 0.0 -0.0 -7.730876445770264 5.474894046783447 -0.41732466220855713 -0.0 0.0 -0.0 -2.9054994583129883 0.9650753736495972 -0.10300876200199127 -0.0 0.0 -0.0 -10.278595924377441 0.7317469120025635 -0.026285571977496147 -0.0 0.0 -0.0 -2.221662998199463 -0.7335850596427917 0.20831838250160217 -0.0 0.0 -0.0 -21.538286209106445 -27.652101516723633 -34.76669692993164 -4.61245059967041 80.08486938476562 5.842897415161133 -9.384939193725586 -19.220993041992188 -17.53651237487793 -0.0 0.0 -0.0 73.34210968017578 -49.6090087890625 67.9330062866211 3.8357396125793457 76.5796127319336 -3.6413285732269287 -0.12156296521425247 10.138191223144531 15.607603073120117
-12.97870007401798 62.78110146522522 -66.3209998223465 -12.921998023986816 -46.18659973144531 10.487975120544434 2.785011053085327 13.870786666870117 13.732406616210938 -1.1189836263656616 -12.841205596923828 3.770085334777832 -0.5165746212005615 12.75888442993164 8.176361083984375 6.102003574371338 -23.3433837890625 17.46591567993164 -0.0 0.0 -0.0 -0.0 0.0 -0.0 -0.0 0.0 -0.0 64.59388732910156 78.98258972167969 1.1788100004196167 -26.810985565185547 -44.50300216674805 92.45050048828125 -41.670528411865234 -79.48099517822266 -49.1908073425293 -0.0 0.0 -0.0 -0.0 0.0 -0.0 -0.0 0.0 -0.0 7.730876445770264 5.474894046783447 0.41732466220855713 -0.0 0.0 -0.0 2.9054994583129883 0.9650753736495972 0.10300876200199127 -0.0 0.0 -0.0 10.278595924377441 0.7317469120025635 0.026285571977496147 -0.0 0.0 -0.0 2.221662998199463 -0.7335850596427917 -0.20831838250160217 -0.0 0.0 -0.0 -65.88398742675781 12.041998863220215 -41.304595947265625 28.42819595336914 -36.200401306152344 -77.34539031982422 0.4601408541202545 18.919708251953125 -2.761058807373047 -0.0 0.0 -0.0 -0.0 0.0 -0.0 -0.0 0.0 -0.0 -7.730876445770264 5.474894046783447 -0.41732466220855713 -0.0 0.0 -0.0 -2.9054994583129883 0.9650753736495972 -0.10300876200199127 -0.0 0.0 -0.0 -10.278595924377441 0.7317469120025635 -0.026285571977496147 -0.0 0.0 -0.0 -2.221662998199463 -0.7335850596427917 0.20831838250160217 -0.0 0.0 -0.0 -21.966503143310547 -27.90879249572754 -35.1814079284668 -4.956801414489746 80.66471099853516 6.19488000869751 -9.441574096679688 -19.533599853515625 -17.45039176940918 -0.0 0.0 -0.0 73.9176025390625 -49.625694274902344 68.37939453125 3.9560248851776123 76.90941619873047 -3.763615131378174 -0.06754626333713531 9.99067211151123 15.492483139038086
-13.012300073751248 62.55429983139038 -66.41299982438795 -12.755990982055664 -46.33669662475586 10.452999114990234 2.6232008934020996 13.836799621582031 13.734498023986816 -0.9758009910583496 -12.8764009475708 3.7805612087249756 -0.5743012428283691 12.902603149414062 8.215167999267578 6.089572429656982 -23.370893478393555 17.538097381591797 -0.0 0.0 -0.0 -0.0 0.0 -0.0 -0.0 0.0 -0.0 64.30441284179688 79.13282012939453 1.4389212131500244 -26.810802459716797 -44.50339126586914 92.4511947631836 -41.240089416503906 -79.42448425292969 -48.76218032836914 -0.0 0.0 -0.0 -0.0 0.0 -0.0 -0.0 0.0 -0.0 7.730876445770264 5.474894046783447 0.41732466220855713 -0.0 0.0 -0.0 2.9054994583129883 0.9650753736495972 0.10300876200199127 -0.0 0.0 -0.0 10.278595924377441 0.7317469120025635 0.026285571977496147 -0.0 0.0 -0.0 2.221662998199463 -0.7335850596427917 -0.20831838250160217 -0.0 0.0 -0.0 -65.94449615478516 11.862497329711914 -41.239593505859375 28.42740821838379 -36.24310302734375 -77.41690826416016 0.4931083023548126 19.553796768188477 -2.8610939979553223 -0.0 0.0 -0.0 -0.0 0.0 -0.0 -0.0 0.0 -0.0 -7.730876445770264 5.474894046783447 -0.41732466220855713 -0.0 0.0 -0.0 -2.9054994583129883 0.9650753736495972 -0.10300876200199127 -0.0 0.0 -0.0 -10.278595924377441 0.7317469120025635 -0.026285571977496147 -0.0 0.0 -0.0 -2.221662998199463 -0.7335850596427917 0.20831838250160217 -0.0 0.0 -0.0 -22.47649574279785 -28.162904739379883 -35.626304626464844 -5.352095127105713 81.24347686767578 6.594289779663086 -9.463326454162598 -19.856706619262695 -17.294198989868164 -0.0 0.0 -0.0 74.3795166015625 -49.62950134277344 68.82270812988281 4.057149887084961 77.17333221435547 -3.863826274871826 -0.03694745525717735 9.913993835449219 15.401505470275879
-13.050400072825141 62.332600355148315 -66.51399982511066 -12.639007568359375 -46.43608856201172 10.486998558044434 2.4119911193847656 13.779792785644531 13.744199752807617 -0.84576416015625 -12.898795127868652 3.7903249263763428 -0.6136077046394348 13.01696491241455 8.236846923828125 6.088098526000977 -23.398208618164062 17.578895568847656 -0.0 0.0 -0.0 -0.0 0.0 -0.0 -0.0 0.0 -0.0 64.08273315429688 79.259033203125 1.6590951681137085 -26.815298080444336 -44.49210739135742 92.42859649658203 -40.70709228515625 -79.32540130615234 -48.21059799194336 -0.0 0.0 -0.0 -0.0 0.0 -0.0 -0.0 0.0 -0.0 7.730876445770264 5.474894046783447 0.41732466220855713 -0.0 0.0 -0.0 2.9054994583129883 0.9650753736495972 0.10300876200199127 -0.0 0.0 -0.0 10.278595924377441 0.7317469120025635 0.026285571977496147 -0.0 0.0 -0.0 2.221662998199463 -0.7335850596427917 -0.20831838250160217 -0.0 0.0 -0.0 -65.95889282226562 11.693501472473145 -41.18649673461914 28.42609405517578 -36.29869842529297 -77.51050567626953 0.5252476334571838 20.148605346679688 -2.955768346786499 -0.0 0.0 -0.0 -0.0 0.0 -0.0 -0.0 0.0 -0.0 -7.730876445770264 5.474894046783447 -0.41732466220855713 -0.0 0.0 -0.0 -2.9054994583129883 0.9650753736495972 -0.10300876200199127 -0.0 0.0 -0.0 -10.278595924377441 0.7317469120025635 -0.026285571977496147 -0.0 0.0 -0.0 -2.221662998199463 -0.7335850596427917 0.20831838250160217 -0.0 0.0 -0.0 -22.981996536254883 -28.438302993774414 -36.057899475097656 -5.78403902053833 81.80451202392578 7.0304341316223145 -9.485527992248535 -20.162511825561523 -17.151586532592773 -0.0 0.0 -0.0 74.82540130615234 -49.6223030090332 69.3096923828125 4.154904365539551 77.41128540039062 -3.9603683948516846 -0.005136343650519848 9.828582763671875 15.337296485900879
